<svg width="36" height="38" viewBox="0 0 36 38" fill="none" xmlns="http://www.w3.org/2000/svg">
<rect width="36" height="38" rx="4" fill="#554A95"/>
<path d="M9.018 15.764V18.212H11.898V19.328H9.018V21.884H12.258V23H7.65V14.648H12.258V15.764H9.018ZM15.299 14.66V19.976C15.299 20.608 15.463 21.084 15.791 21.404C16.127 21.724 16.591 21.884 17.183 21.884C17.783 21.884 18.247 21.724 18.575 21.404C18.911 21.084 19.079 20.608 19.079 19.976V14.66H20.447V19.952C20.447 20.632 20.299 21.208 20.003 21.68C19.707 22.152 19.311 22.504 18.815 22.736C18.319 22.968 17.771 23.084 17.171 23.084C16.571 23.084 16.023 22.968 15.527 22.736C15.039 22.504 14.651 22.152 14.363 21.68C14.075 21.208 13.931 20.632 13.931 19.952V14.66H15.299ZM26.0561 18.836L28.6481 23H27.1121L25.2281 19.976L23.4641 23H21.9401L24.5321 18.836L21.9281 14.66H23.4641L25.3601 17.708L27.1361 14.66H28.6601L26.0561 18.836Z" fill="white"/>
</svg>
