<svg width="16" height="16" viewBox="0 0 16 16" fill="none" xmlns="http://www.w3.org/2000/svg">
<rect width="16" height="16" rx="1" fill="url(#paint0_linear_326_1147)"/>
<path d="M2.03356 10.542V6.17836H4.9739V6.93901H2.95614V7.97878H4.82262V8.73944H2.95614V9.78134H4.98242V10.542H2.03356ZM8.4027 6.17836H9.32528V9.01216C9.32528 9.33034 9.24929 9.60875 9.0973 9.84739C8.94673 10.086 8.7358 10.2721 8.46449 10.4056C8.19318 10.5377 7.87713 10.6038 7.51634 10.6038C7.15412 10.6038 6.83736 10.5377 6.56605 10.4056C6.29474 10.2721 6.08381 10.086 5.93324 9.84739C5.78267 9.60875 5.70739 9.33034 5.70739 9.01216V6.17836H6.62997V8.93333C6.62997 9.09952 6.66619 9.24725 6.73864 9.37651C6.8125 9.50577 6.91619 9.60733 7.04972 9.6812C7.18324 9.75506 7.33878 9.79199 7.51634 9.79199C7.69531 9.79199 7.85085 9.75506 7.98295 9.6812C8.11648 9.60733 8.21946 9.50577 8.2919 9.37651C8.36577 9.24725 8.4027 9.09952 8.4027 8.93333V6.17836ZM10.9494 6.17836L11.8294 7.66557H11.8635L12.7477 6.17836H13.7896L12.4579 8.36017L13.8194 10.542H12.7583L11.8635 9.05265H11.8294L10.9345 10.542H9.87766L11.2434 8.36017L9.90323 6.17836H10.9494Z" fill="white"/>
<defs>
<linearGradient id="paint0_linear_326_1147" x1="1.1688" y1="1.13204" x2="13.9437" y2="14.711" gradientUnits="userSpaceOnUse">
<stop stop-color="#19B2E2"/>
<stop offset="0.387712" stop-color="#FF0000" stop-opacity="0.2"/>
<stop offset="0.835" stop-color="#8A1994"/>
<stop offset="1" stop-color="#931BF1"/>
</linearGradient>
</defs>
</svg>
